<svg width="24" height="24" viewBox="0 0 24 24" fill="none" xmlns="http://www.w3.org/2000/svg">
<path d="M11.0985 3.80369H5.41202C3.52768 3.80369 2.00012 5.3312 2.00012 7.21548V18.5882C2.00012 20.4725 3.52768 22 5.41202 22H16.785C18.6693 22 20.1969 20.4725 20.1969 18.5882L20.1969 12.9018M7.68662 16.3136L11.8245 15.4799C12.0441 15.4356 12.2458 15.3274 12.4042 15.1689L21.6672 5.90116C22.1113 5.45682 22.111 4.73657 21.6666 4.2926L19.7043 2.33264C19.26 1.88886 18.5401 1.88916 18.0962 2.33332L8.83222 11.6021C8.67412 11.7602 8.56617 11.9615 8.52187 12.1807L7.68662 16.3136Z" stroke="#237BFF" stroke-width="2" stroke-linecap="round" stroke-linejoin="round"/>
</svg>
