<svg width="24" height="24" viewBox="0 0 24 24" fill="none" xmlns="http://www.w3.org/2000/svg">
<path d="M11.5202 6.2399V9.1199C11.5202 9.6501 11.95 10.0799 12.4802 10.0799H15.3602M17.2802 2.3999H10.56C9.49958 2.3999 8.63997 3.25951 8.63996 4.31989V6.2399M17.2802 2.3999H17.8157C18.0861 2.3999 18.3434 2.51377 18.5297 2.70973C18.8096 3.0042 19.2529 3.45762 19.6802 3.8399C20.015 4.13952 20.5411 4.67722 20.8562 5.00401C21.0265 5.18073 21.1202 5.4167 21.1202 5.66217L21.1202 6.2399M17.2802 2.3999V5.2799C17.2802 5.8101 17.71 6.2399 18.2402 6.2399H21.1202M21.1202 6.2399L21.1199 15.8399C21.1199 16.9003 20.2603 17.7599 19.1999 17.7599H15.3599M13.9202 7.6799C13.4929 7.29762 13.0496 6.84421 12.7697 6.54973C12.5834 6.35377 12.3261 6.2399 12.0557 6.2399H4.79996C3.73958 6.2399 2.87996 7.09951 2.87996 8.15989L2.87988 19.6799C2.87988 20.7402 3.73949 21.5999 4.79988 21.5999L13.4399 21.5999C14.5003 21.5999 15.3599 20.7403 15.3599 19.6799L15.3602 9.50217C15.3602 9.2567 15.2665 9.02073 15.0962 8.84401C14.7811 8.51722 14.255 7.97952 13.9202 7.6799Z" stroke="black" stroke-width="2" stroke-linecap="round" stroke-linejoin="round"/>
</svg>
