<svg width="24" height="24" viewBox="0 0 24 24" fill="none" xmlns="http://www.w3.org/2000/svg">
<path d="M9.59998 21.6H7.19998C5.21175 21.6 3.59998 19.9882 3.59998 18V6.00002C3.59998 4.0118 5.21175 2.40002 7.19998 2.40002H15.6C17.5882 2.40002 19.2 4.0118 19.2 6.00002V9.00002M15 15V13.8C15 12.8059 15.8059 12 16.8 12C17.7941 12 18.6 12.8059 18.6 13.8V15.6M15 7.20002H7.19998M11.4 10.8H7.19998M9.59998 14.4H7.19998M14.4 21.6H19.2C19.8627 21.6 20.4 21.0628 20.4 20.4V16.8C20.4 16.1373 19.8627 15.6 19.2 15.6H14.4C13.7372 15.6 13.2 16.1373 13.2 16.8V20.4C13.2 21.0628 13.7372 21.6 14.4 21.6Z" stroke="black" stroke-width="2" stroke-linecap="round" stroke-linejoin="round"/>
</svg>
